<svg width="86" height="88" viewBox="0 0 86 88" fill="none" xmlns="http://www.w3.org/2000/svg">
<path fill-rule="evenodd" clip-rule="evenodd" d="M43 0C19.2425 0 0 19.69 0 44C0 63.47 12.3087 79.915 29.4012 85.745C31.5512 86.13 32.3575 84.81 32.3575 83.655C32.3575 82.61 32.3037 79.145 32.3037 75.46C21.5 77.495 18.705 72.765 17.845 70.29C17.3612 69.025 15.265 65.12 13.4375 64.075C11.9325 63.25 9.7825 61.215 13.3837 61.16C16.77 61.105 19.1887 64.35 19.995 65.67C23.865 72.325 30.0462 70.455 32.5187 69.3C32.895 66.44 34.0238 64.515 35.26 63.415C25.6925 62.315 15.695 58.52 15.695 41.69C15.695 36.905 17.3612 32.945 20.1025 29.865C19.6725 28.765 18.1675 24.255 20.5325 18.205C20.5325 18.205 24.1337 17.05 32.3575 22.715C35.7975 21.725 39.4525 21.23 43.1075 21.23C46.7625 21.23 50.4175 21.725 53.8575 22.715C62.0812 16.995 65.6825 18.205 65.6825 18.205C68.0475 24.255 66.5425 28.765 66.1125 29.865C68.8538 32.945 70.52 36.85 70.52 41.69C70.52 58.575 60.4688 62.315 50.9012 63.415C52.46 64.79 53.8037 67.43 53.8037 71.555C53.8037 77.44 53.75 82.17 53.75 83.655C53.75 84.81 54.5562 86.185 56.7062 85.745C65.2424 82.796 72.6599 77.1822 77.9148 69.6937C83.1697 62.2052 85.9974 53.219 86 44C86 19.69 66.7575 0 43 0Z" fill="#FFFEFE"/>
</svg>
