<svg width="118" height="120" viewBox="0 0 118 120" fill="none" xmlns="http://www.w3.org/2000/svg">
<path d="M66.2423 119.745C64.7046 119.471 63.1116 118.729 62.2082 117.908C61.5948 117.253 61.2449 116.389 61.2273 115.485C61.2273 114.566 61.6882 113.276 62.4183 111.99C62.8608 111.266 63.2075 110.486 63.4545 109.665C63.6094 109.099 63.9339 108.18 64.1847 107.595L64.6271 106.523L64.7415 99.3563C64.8005 95.3925 64.9148 91.7213 65.0106 91.1513C65.2614 89.5088 65.6818 87.9075 66.2386 86.3475L66.6626 85.3125L66.0468 84.9413C65.49 84.5888 65.0291 84.1013 63.2038 81.8925C60.9581 79.1963 58.0007 77.7113 53.8117 77.205C52.4473 77.07 51.0645 76.9688 49.6817 76.9125C43.5346 76.62 40.0205 75.3113 36.8529 72.1463C34.4892 69.7838 33.2613 67.0275 32.7635 62.9663C32.0923 57.4763 31.3438 54.6638 29.961 52.38C29.6201 51.816 29.2275 51.2861 28.7883 50.7975L28.2315 50.2313L27.0036 51.0338C26.3325 51.4838 25.3885 52.05 24.9275 52.305C23.3898 53.1638 21.9296 54.12 20.5283 55.155C17.0916 57.6938 13.3451 60.8775 11.2911 62.9663C10.3693 63.9038 9.8899 64.3125 9.67602 64.275C8.27477 64.0613 9.34783 57.8888 11.6341 53.2388C14.5546 47.2425 19.47 41.715 25.1561 37.9838C29.8245 34.9163 37.3728 30.6975 40.8649 29.2125C47.0673 26.5763 55.095 23.7225 60.5893 22.2C61.7435 21.8663 62.4515 21.5738 62.9309 21.2438C64.0076 20.4825 65.0623 20.1113 66.2718 20.0925C67.2895 20.0738 67.3854 20.055 68.3663 19.3875C69.5205 18.6263 69.8634 18.585 71.0176 18.9975L71.7661 19.2713L72.688 18.6263L73.6099 18L74.9337 18.0188C75.9515 18.0375 76.4124 18 76.8549 17.805C77.4117 17.55 77.4302 17.5125 77.585 16.575C77.9317 14.5425 77.9685 13.5263 77.7583 12.2963C77.4892 10.6763 77.4523 4.3875 77.7215 3.15375C78.0091 1.82625 78.2008 1.5525 79.1817 1.065C80.642 0.341252 81.7371 0.127502 84.252 0.127502C87.3237 0.127502 88.8798 0.558753 90.034 1.69125C91.0702 2.7075 91.2435 5.08875 90.7051 10.6763C90.377 13.8975 90.3401 14.7975 90.436 16.905C90.4728 18.2513 90.5687 19.5225 90.6093 19.6988C90.6867 20.0325 90.7642 20.0513 91.8778 20.07C92.973 20.0888 93.1647 20.1488 94.2009 20.6963C95.2002 21.225 95.9488 21.87 96.1037 22.3388C96.1221 22.4363 96.2954 22.4363 96.6015 22.3388C97.1952 22.1625 97.7151 22.3575 98.1392 22.8863C98.3899 23.22 98.5411 23.2763 99.12 23.2763C99.9091 23.2763 100.197 23.4713 100.849 24.45C101.155 24.8893 101.573 25.2344 102.059 25.4475C103.136 25.995 104.596 27.5175 105.153 28.7288C106.016 30.525 106.189 32.6138 105.651 34.4888C105.459 35.1938 105.459 35.2125 105.861 35.895C106.705 37.3613 107.015 39.1575 106.668 40.68L106.477 41.58L107.052 42.165C109.913 45.075 109.489 49.8225 105.997 54.06C105.607 54.544 105.277 55.0756 105.016 55.6425C104.345 57.4575 103.575 58.7288 102.579 59.7825L101.561 60.8363H100.525C99.4888 60.8363 98.0285 60.4838 97.1435 60.015C96.7785 59.82 96.76 59.82 96.8375 60.0525C97.0698 60.9113 97.645 64.4063 97.8368 66.3413C98.1428 69.3113 98.047 73.6275 97.645 75.4838C97.3513 76.8586 96.8592 78.1816 96.1848 79.41C95.8013 80.0363 95.7828 80.1713 95.8566 80.9325C95.9709 82.005 95.7238 83.805 95.2998 84.9938C94.7798 86.3813 94.5881 87.0263 94.4738 87.7275C94.3779 88.3313 94.3779 88.3313 94.802 88.3313C95.3588 88.3313 95.6648 88.665 95.6648 89.3288C95.6648 89.6213 95.4141 91.2038 95.108 92.8238C94.2636 97.3763 94.2046 97.8825 94.2046 102.296C94.1862 106.849 94.1861 106.808 95.2039 107.49L97.4902 108.994C99.457 110.321 101.563 111.422 103.77 112.275C106.978 113.565 107.421 113.895 107.421 114.99C107.421 115.478 107.325 115.654 106.923 116.044C105.695 117.255 103.272 117.529 98.3936 117C95.8585 116.758 93.314 116.635 90.7678 116.629C84.0455 116.531 83.0647 116.295 82.1833 114.596C81.6855 113.621 81.7814 112.35 82.471 110.261C82.777 109.343 83.0462 108.405 83.2785 107.449C83.7395 105.184 83.4334 102.488 82.3567 99.4425L81.4348 96.8438C80.5313 94.2075 80.0335 89.3813 80.5719 88.29C80.6678 88.0763 80.8411 88.035 81.302 88.0538L81.8773 88.1138L82.3567 87.0975C82.7217 86.295 83.1236 85.77 84.2188 84.6563L85.6201 83.2313L85.5426 82.3125C85.4837 81.435 84.3516 77.175 84.1967 77.1938C84.1377 77.1938 83.8316 77.625 83.485 78.1688C82.6406 79.4588 80.7784 81.45 79.7201 82.1738C79.2591 82.485 78.8756 82.8563 78.8756 82.9763C78.8572 83.505 78.4147 84.54 77.8763 85.26C77.3564 85.965 77.3195 86.0813 77.397 86.7038C77.5297 87.6225 77.2421 90.57 76.8991 92.115C76.5883 93.2622 76.1633 94.3742 75.6307 95.4338C74.3068 98.2275 73.3075 100.725 73.0568 101.88C72.8757 102.992 72.7599 104.114 72.7102 105.24C72.6511 106.568 72.5184 107.858 72.4225 108.131C72.2898 108.503 72.2898 108.795 72.4041 109.361C72.5 109.77 72.559 110.689 72.5368 111.413C72.5184 112.41 72.5958 113.055 72.8835 114.225C73.3813 116.216 73.4771 117.469 73.2485 118.211C73.0937 118.68 72.9425 118.856 72.4225 119.111C71.2683 119.715 68.0049 120.049 66.2386 119.738L66.2423 119.745ZM70.907 118.144C71.5781 117.949 72.157 117.364 72.157 116.835C72.157 116.599 71.9653 115.916 71.733 115.313C71.272 114.161 70.4829 111.113 70.4829 110.606C70.4829 110.351 70.5013 110.333 70.8848 110.546L71.3089 110.783V110.235C71.2474 109.73 71.1375 109.233 70.9807 108.75C70.6157 107.636 70.5788 107.618 68.252 107.479L66.6774 107.4L66.1021 107.966C65.7858 108.297 65.5086 108.665 65.2761 109.061C65.0254 109.568 64.9295 110.333 65.0844 110.505C65.1213 110.565 65.5085 110.505 65.9288 110.408C66.1784 110.332 66.4358 110.287 66.6958 110.273C66.6958 110.291 66.2718 110.644 65.7371 111.015C63.4324 112.774 62.6248 113.846 62.6248 115.215C62.6248 116.64 63.9487 117.754 66.0247 118.088C67.4444 118.301 70.21 118.361 70.9033 118.148L70.907 118.144ZM102.155 115.819C102.73 115.114 102.653 114.394 101.923 113.573C101.498 113.141 101.019 112.77 100.481 112.478C99.9423 112.185 99.404 111.851 98.8656 111.503C97.8919 110.861 96.8916 110.261 95.8676 109.706C94.9827 109.219 94.1198 108.709 93.2753 108.165L92.9287 107.891V102.521C92.9287 97.23 92.9103 97.1513 92.6411 97.23C91.2952 97.6013 89.0679 97.7775 86.247 97.7175L83.1937 97.68L83.6362 98.775C84.4622 100.845 84.8863 103.62 84.8863 106.804C84.8863 107.996 84.8088 108.424 84.5212 109.264C84.3663 109.673 84.2336 110.085 84.0971 110.494C84.0381 110.67 84.252 110.805 85.0375 111.041C85.6127 111.218 86.4571 111.394 86.9402 111.45L87.8252 111.548L87.7293 112.448C87.6335 113.464 87.7478 114.536 87.9985 114.87C88.1534 115.065 88.7286 115.144 91.3984 115.26C93.4155 115.358 95.6058 115.571 97.3316 115.826C98.8287 116.063 100.444 116.258 100.923 116.258C101.731 116.276 101.808 116.239 102.151 115.826L102.155 115.819ZM71.4085 106.68C71.4859 106.62 71.6002 105.566 71.6408 104.318C71.7956 100.823 71.9284 100.313 73.6578 96.3675C75.0775 93.1463 75.8298 90.1388 75.7708 88.0088L75.7339 86.7375L75.1955 87.2663C74.0819 88.3988 74.8489 86.6213 76.1764 85.0388C77.1757 83.8275 77.5223 83.1638 77.6735 82.0913C77.751 81.66 77.9058 81.4463 78.5585 80.94C81.0006 79.0639 82.8823 76.5349 83.9939 73.635C84.2631 72.93 84.9527 70.53 85.5316 68.3025C86.6083 64.1813 87.1836 62.4038 87.7035 61.6425C87.8953 61.35 87.9727 61.29 87.9358 61.485C87.6573 62.5324 87.4394 63.5955 87.2831 64.6688C87.1283 65.625 86.8406 67.5 86.6489 68.8088C86.2838 71.4863 85.9003 73.2038 85.3804 74.5313L85.0338 75.4313L85.9557 77.8538C86.9144 80.3325 87.3569 82.1325 87.4343 83.8688L87.4933 84.8438L86.7448 85.0013C85.7568 85.1791 84.8751 85.7396 84.2852 86.565C83.6325 87.5213 83.2675 88.305 83.4408 88.4775C83.5182 88.5563 84.4585 88.7325 85.5353 88.8675C87.2057 89.0625 87.84 89.0625 90.0488 88.9275C91.0075 88.89 91.9515 88.7925 92.8918 88.6538C93.102 88.575 93.3159 88.1475 93.6588 87.0338C94.448 84.4763 94.5992 83.5763 94.5033 81.78L94.4258 80.1975L94.8278 79.6688C95.7681 78.4575 96.4982 76.2713 96.8043 73.71C97.1693 70.5863 96.4982 64.0425 95.2482 58.4175C94.6545 55.74 94.4037 54.1388 94.4037 52.9688V51.9338L93.4634 52.0313C90.082 52.4025 85.9925 52.305 83.4961 51.7763C82.1317 51.5025 78.695 50.4675 77.9464 50.1338L77.3527 49.86L77.2753 50.5425C77.2163 50.9138 77.161 51.285 77.0835 51.675C76.9692 52.0838 77.0061 52.1813 77.7178 52.8863C78.6028 53.805 78.872 54.2738 78.872 54.8963C78.872 55.2863 78.6618 55.6013 77.585 56.7338C76.813 57.5715 75.9565 58.3244 75.0296 58.98L73.7795 59.8388L73.2411 61.7325C71.32 68.6663 70.9549 74.9738 72.2234 79.485L72.5295 80.6175L71.9137 81.3975C69.609 84.345 68.2446 86.5913 68.0344 87.8438C67.9115 88.4605 67.7701 89.0733 67.6103 89.6813C67.1125 91.6163 66.7253 94.4475 66.5557 97.515C66.4375 100.083 66.2715 102.648 66.0579 105.21L65.962 105.971L66.9208 106.264C67.4592 106.44 68.2667 106.635 68.7276 106.714C69.5905 106.849 71.1872 106.811 71.4343 106.676L71.4085 106.68ZM90.0562 95.9363C91.5533 95.8388 92.9176 95.6025 93.1868 95.37C93.3011 95.2913 93.4376 94.8825 93.4745 94.47L93.5703 93.7275L92.3793 94.0013C91.439 94.1963 90.4986 94.3125 89.5546 94.3913C87.2868 94.4888 85.0043 94.4288 82.7549 94.1963C82.0063 94.08 82.0063 94.08 82.235 95.0738C82.4267 95.8163 82.4673 95.8538 84.4253 95.9925C85.7307 96.1088 87.556 96.09 90.0525 95.9325L90.0562 95.9363ZM88.8061 92.5388C90.7642 92.3625 93.2053 91.935 93.6847 91.68C93.8395 91.6013 93.9723 91.3088 94.0313 90.975L94.2046 89.94L94.3005 89.4525L93.8211 89.55C91.6897 90 90.0746 90.135 86.848 90.135C83.6989 90.135 83.3338 90.1163 82.5078 89.8238C82.1904 89.6877 81.8524 89.6078 81.5085 89.5875C81.3758 89.6663 81.3536 90.78 81.4716 91.56C81.5491 92.0288 81.6265 92.1075 82.0875 92.2425C83.5477 92.6513 86.0073 92.7488 88.8098 92.5163L88.8061 92.5388ZM53.1627 74.9213C58.0781 73.4775 64.5128 69.2363 69.7749 63.9263C71.4859 62.1863 71.6961 61.9538 71.9247 61.1738L72.2308 60.1763C72.2676 60.0975 71.9616 59.9625 71.5597 59.865C70.505 59.61 69.6975 58.9875 69.6975 58.4213C69.6975 58.0875 69.5057 57.7575 68.9489 57.15C68.0455 56.115 67.8168 55.665 67.721 54.6713L67.6435 53.8688L66.5668 53.0888C65.951 52.6388 63.8011 51.4275 61.5149 50.2575C59.7742 49.3939 58.0702 48.4555 56.4077 47.445C54.4865 46.1363 53.1996 44.5725 52.4695 42.72C52.3367 42.3488 52.1634 42.0375 52.1044 42.0375C51.9495 42.0375 47.6278 46.275 45.784 48.2663C41.2337 53.1488 38.103 57.3863 36.1228 61.3125C35.625 62.2875 35.0866 63.4425 34.9317 63.87L34.6441 64.65L34.9907 65.9588C35.2009 66.6638 35.6434 67.815 35.99 68.4975C37.1995 70.92 38.6413 72.3825 41.0235 73.575C43.5789 74.865 45.843 75.315 49.6264 75.255C51.6619 75.2363 52.2593 75.1763 53.159 74.9025L53.1627 74.9213ZM14.3665 57.7913C17.5931 54.8813 22.0476 51.6975 27.5051 48.3975C31.0783 46.23 44.888 39.1988 51.2452 36.3263C52.3994 35.7975 53.4356 35.31 53.5499 35.2538C53.6642 35.175 53.9924 34.335 54.2985 33.3975C55.6444 29.0625 56.3155 28.2038 58.753 27.6375C59.059 27.5588 59.1365 27.4613 59.1365 27.15C59.1365 26.5838 59.52 25.275 59.8481 24.69C60.0989 24.24 60.0989 24.2213 59.885 24.2813C59.7523 24.3188 58.9447 24.555 58.1003 24.81C46.3851 28.2488 36.1486 32.8163 27.3133 38.52C17.8844 44.6138 12.449 51.9188 10.8745 60.6675L10.7601 61.3125L11.9143 60.1613C12.5301 59.5163 13.6438 58.4625 14.3739 57.8175L14.3665 57.7913ZM101.274 59.4525C102.214 58.965 103.674 56.7188 104.212 54.9413C104.367 54.315 104.673 53.73 105.116 53.2425C106.536 51.6413 107.708 48.7313 107.727 46.74C107.727 43.635 105.997 42.4425 103.482 43.77C103.154 43.9275 102.889 44.0438 102.848 44.0063C102.715 43.8713 103.423 43.1663 104.29 42.6188C105.422 41.8575 105.636 41.4075 105.636 39.7875C105.653 38.4781 105.27 37.1955 104.541 36.1163C104.194 35.5875 104.061 35.2388 104.117 35.0213L104.463 33.7125C104.943 31.9725 104.769 29.9813 104.021 28.7138C102.907 26.8013 101.543 25.8638 99.64 25.7063L98.5263 25.6275L99.179 26.37C101.119 28.5 102.059 31.1738 101.675 33.4613C101.484 34.635 101.31 34.8675 100.197 35.3175L99.5441 35.5913L99.6215 36.4913C99.7543 37.9575 99.5072 39.03 98.5853 41.0025C98.1244 42 97.7778 42.8963 97.8183 42.9938C97.9327 43.3275 99.2011 43.95 100.2 44.205L101.181 44.4413L100.566 44.655C99.758 44.91 99.5847 45.2813 99.5847 46.6275C99.5847 47.8575 99.758 48.3675 100.639 49.7138C101.041 50.2988 101.31 50.9063 101.351 51.255C101.428 51.8025 101.41 51.84 100.967 51.9975C100.466 52.1407 99.9501 52.2262 99.4298 52.2525C97.6229 52.3688 97.4902 52.4288 96.6826 53.2088C95.9525 53.9138 95.934 53.9513 95.934 54.7313C95.934 55.8038 96.336 57.975 96.5867 58.2675C96.9149 58.62 98.7365 59.5388 99.4482 59.6738C100.062 59.8305 100.711 59.7545 101.274 59.46V59.4525ZM74.6719 57.99C75.8445 57.0525 76.7664 56.115 77.2827 55.3125C77.6108 54.825 77.6293 54.7275 77.4744 54.315C77.2052 53.6888 75.4389 52.0688 74.458 51.5813C73.8045 51.2835 73.1131 51.0802 72.4041 50.9775L71.1946 50.82L70.446 49.8638C68.8899 47.91 68.027 46.3875 66.7954 43.4363C65.7187 40.935 64.7783 39.4725 63.2812 38.025C62.6654 37.44 62.2266 36.9525 62.2635 36.9525C62.3409 36.9525 63.071 37.3238 63.9155 37.7738C65.3167 38.535 65.49 38.595 66.1243 38.4975C68.4105 38.2238 70.4276 35.55 71.1577 31.8C71.3679 30.7463 71.792 29.67 72.2345 29.025C72.2529 29.0063 73.1379 29.5913 74.1741 30.3525C76.807 32.2463 77.3822 32.5388 78.8793 32.5988C79.8602 32.6363 80.417 32.5613 82.1833 32.13C85.9483 31.1925 90.0193 30.8213 92.4973 31.155C93.8985 31.35 95.9156 31.9763 97.4127 32.6963C98.8914 33.4013 99.179 33.4388 99.6584 33.0075C100.06 32.655 100.06 32.5988 100.06 31.29C100.042 29.355 99.3486 27.2663 98.294 26.0175C97.7557 25.3725 96.2401 24.3188 94.7393 23.5163C94.2058 23.2285 93.6748 22.936 93.1463 22.6388C92.4346 22.2075 91.6307 22.2675 89.4403 22.8525C86.9033 23.5163 86.2322 23.5163 83.3338 22.755C80.8743 22.1288 80.7231 22.11 78.3004 22.5C77.0135 22.695 73.7869 22.5788 72.7102 22.2863C72.1718 22.1288 71.6334 21.975 71.1171 21.78C70.1768 21.4088 68.5433 21.3488 67.0646 21.6225C64.1256 22.1513 61.8984 23.7713 61.0908 25.9763C60.6668 27.09 60.7258 27.6188 61.2826 27.9675C62.1676 28.5338 63.3365 30.0788 63.3365 30.6825C63.3365 30.72 63.0489 30.4688 62.7207 30.1163C61.8947 29.2388 61.1461 28.845 60.2611 28.845C59.6885 28.8612 59.1318 29.0397 58.6535 29.3603C58.1753 29.681 57.7947 30.1311 57.5545 30.66C57.2961 31.35 57.0782 32.055 56.9018 32.7713C56.3635 34.7625 55.8841 35.82 54.8663 37.2263C53.9629 38.4975 53.8301 39.0638 54.1546 40.4888C54.9622 44.0813 56.3635 45.5288 62.2192 48.9075C65.2909 50.685 66.8655 51.6825 68.0196 52.56C68.9046 53.2238 68.9231 53.265 68.8456 53.7713C68.6723 54.945 69.4025 56.2125 70.8443 57.2475C71.2093 57.5025 71.438 57.7763 71.438 57.9713C71.438 58.3238 72.4188 58.8113 73.1268 58.8113C73.5288 58.8113 73.8385 58.635 74.6645 57.99H74.6719ZM98.353 51.405C100.58 51.4838 100.695 51.3075 99.5072 49.9013C98.2572 48.435 97.9142 47.2463 98.3752 45.9375L98.5669 45.4313L97.7778 45.0413C97.5086 44.9063 97.2394 44.7675 96.9702 44.67C96.8375 45.1988 96.701 45.705 96.5867 46.2338C96.2991 47.4263 95.9525 50.5125 95.934 51.8213C95.934 51.9375 96.1258 51.9 96.454 51.6863C96.9149 51.4125 97.1472 51.375 98.3567 51.4125L98.353 51.405ZM90.8821 51.2888C92.2281 51.21 93.6109 51.1125 93.976 51.0525L94.6471 50.955L94.7245 48.7088C94.8388 45.5063 95.2998 43.6125 96.6642 40.5825C97.6229 38.4338 98.047 36.5588 97.8368 35.1525C97.7593 34.5488 97.7225 34.5075 96.9149 34.155C95.4362 33.5579 93.8962 33.1315 92.324 32.8838C90.8084 32.67 86.3502 32.7863 84.6798 33.12C83.9865 33.2363 82.7217 33.51 81.8773 33.7238C79.7828 34.2113 78.6692 34.155 77.0761 33.45C75.5016 32.745 74.5023 32.1038 73.562 31.2038C72.8134 30.4988 72.736 30.4613 72.5442 30.6975C72.3893 30.8738 72.3119 31.4025 72.2566 32.535C72.1976 34.275 71.9284 35.19 71.1798 36.42C71.0135 36.6731 70.8715 36.9418 70.7558 37.2225C70.7558 37.2825 71.331 37.965 72.0427 38.7075C74.5023 41.3063 75.7118 41.97 77.6514 41.8313C78.2857 41.7713 78.7281 41.7938 78.7281 41.8688C78.7281 42.0263 77.4781 43.02 76.9618 43.2938C76.7111 43.4288 76.6558 43.5675 76.6926 43.86L76.9987 45.9113C77.172 47.085 77.3048 47.6288 77.4781 47.7863C77.939 48.1763 80.3212 49.4288 81.8183 50.0513C83.7763 50.8538 84.8531 51.1463 86.3502 51.2813C88.194 51.4388 88.2308 51.4388 90.8821 51.2813V51.2888ZM75.0001 49.14C75.037 49.08 74.9042 47.9475 74.6535 46.6388C74.3474 44.8613 74.1741 44.2163 73.9823 44.04C73.8496 43.9238 73.1379 43.4138 72.4262 42.8888C71.4911 42.205 70.6051 41.4543 69.7749 40.6425L68.4511 39.315L67.7394 39.6863L66.9908 40.095C67.0538 40.4001 67.1568 40.6952 67.2969 40.9725C67.5071 41.4413 67.9311 42.5925 68.2372 43.53C69.0448 45.9713 69.679 47.145 71.272 49.2713L71.8657 50.0738L72.9978 50.25C73.632 50.3475 74.2663 50.4863 74.4396 50.5425C74.7088 50.6588 74.7457 50.6025 74.8231 49.9763C74.86 49.7025 74.919 49.41 74.9964 49.1363L75.0001 49.14ZM99.3339 24.8438C100.315 24.7463 100.488 24.6075 100.064 24.1613C99.7948 23.8875 99.179 23.8688 98.6812 24.1013C98.353 24.2588 98.2793 24.2175 97.7593 23.6513C97.221 23.0475 97.1841 23.025 96.5093 23.1038C95.8935 23.1825 95.7976 23.1638 95.7202 22.9088C95.4803 22.4899 95.1822 22.1084 94.8352 21.7763C94.399 21.2722 93.8537 20.8781 93.2421 20.625C92.0511 20.1563 91.38 20.2163 90.2442 20.8613C86.9586 22.6763 87.0951 22.6575 83.9238 21.8363C80.9665 21.075 78.7577 20.295 78.046 19.8038C77.4523 19.395 76.1838 18.945 75.1255 18.8063C74.3363 18.69 73.8385 18.8663 73.09 19.4888L72.688 19.8225L73.0531 20.4675C73.5509 21.3675 73.4956 21.4238 72.747 20.76C71.9395 20.0775 70.9807 19.6088 70.3649 19.5863C69.9224 19.5863 68.617 20.1713 68.4622 20.4263C68.4031 20.505 68.8088 20.6025 69.3471 20.64C69.904 20.7 70.671 20.895 71.1909 21.1088C72.5368 21.6938 73.2264 21.8888 74.4543 22.0088C75.8003 22.1438 78.2377 21.99 78.5253 21.7538C78.6802 21.6188 79.1006 21.5963 79.9856 21.675C81.1582 21.7538 81.6376 21.87 84.4216 22.6313C86.0368 23.0813 87.1688 23.04 89.09 22.515C89.975 22.26 91.0886 22.0088 91.5496 21.9488C92.3387 21.87 92.4899 21.9113 93.7215 22.4775C95.6796 23.3775 96.7195 23.9438 97.2947 24.4688C97.87 24.975 97.9474 24.975 99.3302 24.8588L99.3339 24.8438ZM88.3857 21.4275L89.5583 20.8013L89.5215 19.59C89.503 18.75 89.4625 17.9288 89.4256 17.1113L89.3297 15.8625L88.1571 16.7813C87.4638 17.3288 86.7927 17.7375 86.5051 17.7975C85.6607 17.955 81.4938 17.7975 81.1066 17.5838C80.5908 17.1963 80.1084 16.7647 79.6648 16.2938L78.588 15.18L78.5696 15.8438C78.5696 16.1963 78.5327 16.8 78.4553 17.1713C78.3594 17.8763 78.3594 17.895 79.108 18.8513C79.5099 19.38 79.8381 19.8488 79.8381 19.905C79.8381 20.2763 85.3878 22.035 86.6378 22.0538C87.0398 22.0538 87.5413 21.8775 88.3857 21.4275ZM86.1585 16.9913C87.5413 16.7175 88.2124 15.7013 88.7323 13.125C89.2707 10.35 89.5399 5.99625 89.2892 4.14C89.0568 2.46 87.2131 1.7175 83.6989 1.83375C81.5085 1.9125 80.6051 2.12625 79.8565 2.77125C79.3956 3.16125 79.3956 3.2025 79.1854 5.055C78.8019 8.61 79.3772 13.6688 80.3765 15.5625C80.8558 16.4813 81.2799 16.8113 82.1612 16.9688C83.1605 17.145 85.2919 17.145 86.1548 16.9875L86.1585 16.9913Z" fill="white"/>
</svg>
