<svg width="85" height="43" viewBox="0 0 85 43" fill="none" xmlns="http://www.w3.org/2000/svg">
<g id="logo 1" clip-path="url(#clip0_1_817)">
<path id="Vector" d="M10.9202 0V2.79184C10.0026 2.79184 9.28666 2.90182 8.77242 3.12178C8.25817 3.33328 8.03634 3.76051 8.10693 4.40349L8.5758 8.14708C8.69679 9.09459 8.57075 9.86026 8.19767 10.444C7.83467 11.0277 7.27506 11.4762 6.51881 11.7892C5.77266 12.0938 4.89037 12.3095 3.87196 12.4363C4.95086 12.5717 5.8634 12.7917 6.60957 13.0963C7.35572 13.4008 7.90022 13.8407 8.24305 14.416C8.58588 14.9913 8.69679 15.7612 8.5758 16.7257L8.10693 20.4693C8.03634 21.1122 8.25817 21.5394 8.77242 21.7509C9.28666 21.9708 10.0026 22.0809 10.9202 22.0809V24.8727C8.13717 24.8727 6.18102 24.5173 5.0517 23.8068C3.93247 23.1045 3.47871 21.899 3.69046 20.19L4.14421 16.5606C4.22488 15.9177 4.0938 15.4143 3.75097 15.0505C3.41822 14.6867 2.92414 14.4329 2.26872 14.2891C1.61331 14.1369 0.857075 14.0607 0 14.0607V10.812C0.846991 10.812 1.59819 10.7401 2.25361 10.5963C2.90902 10.444 3.40814 10.186 3.75097 9.82219C4.0938 9.45839 4.22488 8.95502 4.14421 8.31205L3.69046 4.70804C3.46863 2.96526 3.92238 1.74701 5.0517 1.05329C6.18102 0.351094 8.13717 0 10.9202 0Z" fill="url(#paint0_linear_1_817)"/>
<path id="Vector_2" d="M24.0289 3.28674C26.5296 3.28674 28.4152 4.09891 29.6856 5.72325C30.9662 7.33914 31.6065 9.59374 31.6065 12.4871C31.6065 15.3889 30.9662 17.6605 29.6856 19.3017C28.4152 20.9345 26.5296 21.7509 24.0289 21.7509C21.5082 21.7509 19.6125 20.9345 18.342 19.3017C17.0816 17.6605 16.4514 15.3889 16.4514 12.4871C16.4514 9.59374 17.0816 7.33914 18.342 5.72325C19.6125 4.09891 21.5082 3.28674 24.0289 3.28674ZM24.0289 6.19279C22.9601 6.19279 22.1787 6.67502 21.6846 7.63946C21.1905 8.59546 20.9435 10.2113 20.9435 12.4871C20.9435 13.2316 20.9586 13.8957 20.9888 14.4794C21.0192 15.0547 21.0645 15.5666 21.125 16.015L26.2371 7.04303C25.9952 6.72155 25.6927 6.50158 25.3297 6.38314C24.9768 6.25624 24.5432 6.19279 24.0289 6.19279ZM27.0842 12.4871C27.0842 11.5142 27.059 10.6936 27.0086 10.0252L22.1837 18.388C22.4056 18.5657 22.6677 18.6883 22.9702 18.7561C23.2828 18.8237 23.6357 18.8576 24.0289 18.8576C24.7449 18.8576 25.3247 18.6546 25.7683 18.2485C26.2221 17.8424 26.5548 17.174 26.7665 16.2434C26.9783 15.3043 27.0842 14.0522 27.0842 12.4871Z" fill="url(#paint1_linear_1_817)"/>
<path id="Vector_3" d="M42.1744 3.28674C44.6751 3.28674 46.5607 4.09891 47.8311 5.72325C49.1117 7.33914 49.7519 9.59374 49.7519 12.4871C49.7519 15.3889 49.1117 17.6605 47.8311 19.3017C46.5607 20.9345 44.6751 21.7509 42.1744 21.7509C39.6536 21.7509 37.758 20.9345 36.4875 19.3017C35.2271 17.6605 34.5969 15.3889 34.5969 12.4871C34.5969 9.59374 35.2271 7.33914 36.4875 5.72325C37.758 4.09891 39.6536 3.28674 42.1744 3.28674ZM42.1744 6.19279C41.1057 6.19279 40.3242 6.67502 39.8301 7.63946C39.336 8.59546 39.089 10.2113 39.089 12.4871C39.089 13.2316 39.1041 13.8957 39.1343 14.4794C39.1646 15.0547 39.2099 15.5666 39.2705 16.015L44.3827 7.04303C44.1406 6.72155 43.8381 6.50158 43.4752 6.38314C43.1222 6.25624 42.6886 6.19279 42.1744 6.19279ZM45.2297 12.4871C45.2297 11.5142 45.2045 10.6936 45.1541 10.0252L40.3292 18.388C40.551 18.5657 40.8132 18.6883 41.1157 18.7561C41.4283 18.8237 41.7812 18.8576 42.1744 18.8576C42.8903 18.8576 43.4701 18.6546 43.9138 18.2485C44.3675 17.8424 44.7003 17.174 44.912 16.2434C45.1237 15.3043 45.2297 14.0522 45.2297 12.4871Z" fill="url(#paint2_linear_1_817)"/>
<path id="Vector_4" d="M59.2307 21.7256L54.6933 20.5455L62.5129 6.75121H53.3018V3.73096H67.3528V6.44665L59.2307 21.7256Z" fill="url(#paint3_linear_1_817)"/>
<path id="Vector_5" d="M73.4285 0C76.2114 0 78.1626 0.351094 79.2818 1.05329C80.4112 1.75548 80.8699 2.96526 80.6582 4.68266L80.2044 8.31205C80.1237 8.95502 80.2548 9.45839 80.5977 9.82219C80.9405 10.186 81.4345 10.444 82.0799 10.5963C82.7353 10.7401 83.4916 10.812 84.3486 10.812V14.0607C83.5016 14.0607 82.7505 14.1369 82.095 14.2891C81.4397 14.4329 80.9405 14.6867 80.5977 15.0505C80.2548 15.4143 80.1237 15.9177 80.2044 16.5606L80.6582 20.1647C80.8901 21.899 80.4363 23.1172 79.2969 23.8194C78.1676 24.5216 76.2114 24.8727 73.4285 24.8727V22.0809C74.3562 22.0809 75.0771 21.9708 75.5913 21.7509C76.1056 21.5394 76.3224 21.1122 76.2418 20.4693L75.7728 16.7257C75.6519 15.7696 75.7728 15.004 76.1358 14.4287C76.5089 13.8449 77.0736 13.4008 77.8299 13.0963C78.586 12.7832 79.4734 12.5633 80.4918 12.4363C79.4129 12.301 78.4954 12.081 77.7391 11.7764C76.9929 11.4719 76.4485 11.032 76.1056 10.4567C75.7628 9.87298 75.6519 9.1031 75.7728 8.14708L76.2418 4.40349C76.3224 3.76051 76.1005 3.33328 75.5763 3.12178C75.0619 2.90182 74.3461 2.79184 73.4285 2.79184V0Z" fill="url(#paint4_linear_1_817)"/>
<path id="Vector_6" d="M10.6737 30.7283C11.5147 30.7283 12.1922 30.9034 12.7064 31.2537C13.2208 31.6039 13.5958 32.0988 13.8318 32.7384C14.0737 33.378 14.1948 34.1368 14.1948 35.015C14.1948 35.8475 14.0496 36.5911 13.7592 37.2459C13.4688 37.8957 13.0483 38.4083 12.4978 38.784C11.9472 39.1546 11.2787 39.3398 10.4922 39.3398C9.55446 39.3398 8.79216 39.0581 8.20532 38.4946V42.2027L5.33765 42.454V30.9948H7.87863L8.00568 31.9008C8.39893 31.4795 8.82847 31.18 9.29432 31.0024C9.76016 30.8196 10.22 30.7283 10.6737 30.7283ZM9.78436 32.5024C9.45161 32.5024 9.1582 32.5861 8.90409 32.7537C8.65 32.9211 8.41707 33.1495 8.20532 33.4389V36.85C8.40497 37.0987 8.6137 37.2815 8.8315 37.3982C9.05534 37.5149 9.31851 37.5733 9.62101 37.5733C10.1292 37.5733 10.5255 37.3805 10.8099 36.9946C11.0942 36.6038 11.2363 35.9541 11.2363 35.0455C11.2363 34.3754 11.1789 33.8577 11.0639 33.4922C10.949 33.1217 10.7826 32.8653 10.5648 32.7232C10.347 32.5759 10.0869 32.5024 9.78436 32.5024Z" fill="url(#paint5_linear_1_817)"/>
<path id="Vector_7" d="M24.3378 36.751C24.3378 37.0555 24.3862 37.2764 24.4831 37.4134C24.5859 37.5505 24.7492 37.6546 24.973 37.7256L24.3832 39.3094C23.8145 39.2637 23.3336 39.1596 22.9402 38.9972C22.5531 38.8297 22.2476 38.5784 22.0237 38.2434C21.6547 38.6139 21.1828 38.8906 20.608 39.0733C20.0333 39.251 19.4465 39.3398 18.8475 39.3398C17.8553 39.3398 17.0627 39.1038 16.4698 38.6317C15.883 38.1545 15.5896 37.5429 15.5896 36.7967C15.5896 35.9186 15.998 35.2409 16.8147 34.7637C17.6375 34.2866 18.793 34.048 20.2813 34.048H21.579V33.7435C21.579 32.9161 20.9438 32.5024 19.6733 32.5024C19.3648 32.5024 18.9685 32.5405 18.4845 32.6166C18.0005 32.6876 17.5165 32.7916 17.0325 32.9287L16.37 31.3298C16.9932 31.1318 17.6406 30.9821 18.312 30.8806C18.9896 30.7791 19.5947 30.7283 20.127 30.7283C21.5608 30.7283 22.6196 30.9744 23.3032 31.4668C23.993 31.9541 24.3378 32.6597 24.3378 33.5836V36.751ZM19.8366 37.619C20.1452 37.619 20.4689 37.5429 20.8077 37.3906C21.1465 37.2333 21.4036 37.0125 21.579 36.7282V35.4186H20.8712C20.0726 35.4186 19.4858 35.5226 19.1107 35.7307C18.7356 35.9338 18.548 36.2333 18.548 36.6292C18.548 36.9388 18.6599 37.1825 18.8838 37.3601C19.1137 37.5328 19.4313 37.619 19.8366 37.619Z" fill="url(#paint6_linear_1_817)"/>
<path id="Vector_8" d="M36.2052 30.9948L32.9927 39.0809H29.6168L26.3679 30.9948H29.4626L31.3411 37.2383L33.3012 30.9948H36.2052Z" fill="url(#paint7_linear_1_817)"/>
<path id="Vector_9" d="M46.1123 36.751C46.1123 37.0555 46.1606 37.2764 46.2575 37.4134C46.3603 37.5505 46.5236 37.6546 46.7474 37.7256L46.1576 39.3094C45.5889 39.2637 45.108 39.1596 44.7147 38.9972C44.3275 38.8297 44.022 38.5784 43.7981 38.2434C43.4291 38.6139 42.9572 38.8906 42.3824 39.0733C41.8077 39.251 41.2209 39.3398 40.6219 39.3398C39.6297 39.3398 38.8371 39.1038 38.2442 38.6317C37.6574 38.1545 37.364 37.5429 37.364 36.7967C37.364 35.9186 37.7724 35.2409 38.5891 34.7637C39.4119 34.2866 40.5674 34.048 42.0557 34.048H43.3534V33.7435C43.3534 32.9161 42.7182 32.5024 41.4478 32.5024C41.1392 32.5024 40.7429 32.5405 40.2589 32.6166C39.7749 32.6876 39.2909 32.7916 38.8069 32.9287L38.1445 31.3298C38.7676 31.1318 39.415 30.9821 40.0864 30.8806C40.7641 30.7791 41.3691 30.7283 41.9014 30.7283C43.3353 30.7283 44.394 30.9744 45.0776 31.4668C45.7674 31.9541 46.1123 32.6597 46.1123 33.5836V36.751ZM41.611 37.619C41.9196 37.619 42.2433 37.5429 42.5821 37.3906C42.9209 37.2333 43.178 37.0125 43.3534 36.7282V35.4186H42.6456C41.847 35.4186 41.2602 35.5226 40.8851 35.7307C40.51 35.9338 40.3224 36.2333 40.3224 36.6292C40.3224 36.9388 40.4344 37.1825 40.6582 37.3601C40.8881 37.5328 41.2057 37.619 41.611 37.619Z" fill="url(#paint8_linear_1_817)"/>
<path id="Vector_10" d="M48.8865 39.0809V30.9948H51.3912L51.5909 31.9313C52.0204 31.5252 52.4741 31.2232 52.9521 31.0252C53.43 30.8273 53.9745 30.7283 54.5856 30.7283C55.4083 30.7283 56.0557 30.9389 56.5276 31.3603C56.9994 31.7816 57.2354 32.3754 57.2354 33.1419V39.0809H54.3678V33.8348C54.3678 33.3374 54.3012 32.9922 54.1681 32.7993C54.041 32.6014 53.7991 32.5024 53.4421 32.5024C53.1396 32.5024 52.8493 32.5835 52.5709 32.746C52.2986 32.9085 52.0264 33.1343 51.7542 33.4237V39.0809H48.8865Z" fill="url(#paint9_linear_1_817)"/>
<path id="Vector_11" d="M66.8975 30.7283C67.5811 30.7283 68.0863 30.9161 68.413 31.2918C68.7457 31.6623 68.9121 32.2638 68.9121 33.0962V39.0809H66.4528V33.3704C66.4528 33.0861 66.4195 32.8856 66.353 32.7689C66.2925 32.6521 66.1654 32.5938 65.9718 32.5938C65.8206 32.5938 65.6633 32.6318 65.4999 32.708C65.3426 32.779 65.1672 32.9161 64.9736 33.1191V39.0809H62.959V33.3704C62.959 33.0861 62.9257 32.8856 62.8592 32.7689C62.7986 32.6521 62.6716 32.5938 62.478 32.5938C62.3268 32.5938 62.1694 32.6318 62.0061 32.708C61.8488 32.779 61.6734 32.9161 61.4798 33.1191V39.0809H58.9841V30.9948H61.0895L61.2801 31.779C61.5826 31.4338 61.8882 31.1724 62.1966 30.9948C62.5052 30.8171 62.8712 30.7283 63.2948 30.7283C63.6577 30.7283 63.9663 30.8069 64.2204 30.9643C64.4806 31.1166 64.6651 31.3577 64.774 31.6876C65.0644 31.4034 65.385 31.1724 65.7359 30.9948C66.0868 30.8171 66.474 30.7283 66.8975 30.7283Z" fill="url(#paint10_linear_1_817)"/>
<path id="Vector_12" d="M79.2186 29.7003L79.8902 31.4667C79.5514 31.5784 79.155 31.6597 78.7014 31.7104C78.2476 31.7612 77.7182 31.7865 77.1133 31.7865C77.7182 32.0048 78.178 32.2764 78.4926 32.6013C78.8133 32.921 78.9735 33.3423 78.9735 33.8652C78.9735 34.388 78.8072 34.855 78.4745 35.2662C78.1417 35.6723 77.6699 35.9921 77.0588 36.2256C76.4478 36.4591 75.7247 36.5758 74.8899 36.5758C74.4905 36.5758 74.1184 36.5454 73.7737 36.4845C73.6708 36.5301 73.5922 36.5961 73.5377 36.6824C73.4833 36.7687 73.4561 36.8576 73.4561 36.949C73.4561 37.0758 73.5165 37.19 73.6376 37.2915C73.7646 37.3931 74.058 37.4438 74.5178 37.4438H76.0968C76.847 37.4438 77.4943 37.5453 78.0389 37.7484C78.5894 37.9514 79.0159 38.2281 79.3184 38.5783C79.6209 38.9286 79.7722 39.3296 79.7722 39.7814C79.7722 40.6088 79.3396 41.261 78.4745 41.7382C77.6093 42.2153 76.3237 42.4539 74.6176 42.4539C73.3834 42.4539 72.4275 42.3473 71.75 42.1341C71.0784 41.926 70.6095 41.6265 70.3434 41.2356C70.0832 40.8499 69.9531 40.3905 69.9531 39.8575H72.494C72.494 40.091 72.5485 40.2814 72.6574 40.4285C72.7724 40.5808 72.9871 40.6926 73.3018 40.7636C73.6224 40.8346 74.0852 40.8702 74.6902 40.8702C75.3013 40.8702 75.7671 40.8295 76.0877 40.7484C76.4084 40.6671 76.6262 40.5555 76.7412 40.4133C76.8621 40.2763 76.9227 40.1215 76.9227 39.9488C76.9227 39.7103 76.8107 39.5174 76.5869 39.3702C76.363 39.223 76.0091 39.1494 75.525 39.1494H73.9914C72.9508 39.1494 72.1946 38.9895 71.7227 38.6697C71.2508 38.3448 71.0149 37.9666 71.0149 37.5352C71.0149 37.2357 71.1086 36.9515 71.2962 36.6824C71.4898 36.4134 71.759 36.1875 72.1039 36.0047C71.4868 35.7306 71.0451 35.4083 70.7789 35.0378C70.5127 34.6622 70.3797 34.2129 70.3797 33.6901C70.3797 33.0809 70.5642 32.5581 70.9332 32.1216C71.3023 31.6799 71.8104 31.3399 72.4577 31.1013C73.1112 30.8628 73.8554 30.7434 74.6902 30.7434C75.4102 30.7535 76.0364 30.713 76.5687 30.6216C77.1011 30.5251 77.5791 30.3958 78.0025 30.2332C78.426 30.0657 78.8314 29.8881 79.2186 29.7003ZM74.7628 32.3043C74.309 32.3043 73.9491 32.4262 73.6829 32.6698C73.4166 32.9084 73.2836 33.2383 73.2836 33.6596C73.2836 34.1063 73.4197 34.449 73.692 34.6875C73.9642 34.9261 74.3212 35.0454 74.7628 35.0454C75.7429 35.0454 76.2329 34.5733 76.2329 33.6292C76.2329 32.746 75.7429 32.3043 74.7628 32.3043Z" fill="url(#paint11_linear_1_817)"/>
</g>
<defs>
<linearGradient id="paint0_linear_1_817" x1="-1.78267" y1="26.7875" x2="82.9445" y2="-8.95855" gradientUnits="userSpaceOnUse">
<stop stop-color="#00C0FD"/>
<stop offset="1" stop-color="#E70FAA"/>
</linearGradient>
<linearGradient id="paint1_linear_1_817" x1="-1.78268" y1="26.7875" x2="82.9445" y2="-8.95855" gradientUnits="userSpaceOnUse">
<stop stop-color="#00C0FD"/>
<stop offset="1" stop-color="#E70FAA"/>
</linearGradient>
<linearGradient id="paint2_linear_1_817" x1="-1.7826" y1="26.7875" x2="82.9445" y2="-8.95855" gradientUnits="userSpaceOnUse">
<stop stop-color="#00C0FD"/>
<stop offset="1" stop-color="#E70FAA"/>
</linearGradient>
<linearGradient id="paint3_linear_1_817" x1="-1.78268" y1="26.7875" x2="82.9445" y2="-8.95849" gradientUnits="userSpaceOnUse">
<stop stop-color="#00C0FD"/>
<stop offset="1" stop-color="#E70FAA"/>
</linearGradient>
<linearGradient id="paint4_linear_1_817" x1="-1.78274" y1="26.7875" x2="82.9444" y2="-8.95854" gradientUnits="userSpaceOnUse">
<stop stop-color="#00C0FD"/>
<stop offset="1" stop-color="#E70FAA"/>
</linearGradient>
<linearGradient id="paint5_linear_1_817" x1="-0.21245" y1="43.2518" x2="79.9736" y2="23.0349" gradientUnits="userSpaceOnUse">
<stop stop-color="#13B0F5"/>
<stop offset="1" stop-color="#CA24B4"/>
</linearGradient>
<linearGradient id="paint6_linear_1_817" x1="-0.212519" y1="43.2518" x2="79.9735" y2="23.0349" gradientUnits="userSpaceOnUse">
<stop stop-color="#13B0F5"/>
<stop offset="1" stop-color="#CA24B4"/>
</linearGradient>
<linearGradient id="paint7_linear_1_817" x1="-0.212468" y1="43.2517" x2="79.9735" y2="23.0349" gradientUnits="userSpaceOnUse">
<stop stop-color="#13B0F5"/>
<stop offset="1" stop-color="#CA24B4"/>
</linearGradient>
<linearGradient id="paint8_linear_1_817" x1="-0.21256" y1="43.2518" x2="79.9734" y2="23.0349" gradientUnits="userSpaceOnUse">
<stop stop-color="#13B0F5"/>
<stop offset="1" stop-color="#CA24B4"/>
</linearGradient>
<linearGradient id="paint9_linear_1_817" x1="-0.212568" y1="43.2518" x2="79.9734" y2="23.0349" gradientUnits="userSpaceOnUse">
<stop stop-color="#13B0F5"/>
<stop offset="1" stop-color="#CA24B4"/>
</linearGradient>
<linearGradient id="paint10_linear_1_817" x1="-0.212603" y1="43.2518" x2="79.9734" y2="23.0349" gradientUnits="userSpaceOnUse">
<stop stop-color="#13B0F5"/>
<stop offset="1" stop-color="#CA24B4"/>
</linearGradient>
<linearGradient id="paint11_linear_1_817" x1="-0.212592" y1="43.2517" x2="79.9734" y2="23.0348" gradientUnits="userSpaceOnUse">
<stop stop-color="#13B0F5"/>
<stop offset="1" stop-color="#CA24B4"/>
</linearGradient>
<clipPath id="clip0_1_817">
<rect width="84.3487" height="43" fill="white"/>
</clipPath>
</defs>
</svg>
