<svg width="102" height="105" viewBox="0 0 102 105" fill="none" xmlns="http://www.w3.org/2000/svg">
<g clip-path="url(#clip0_33_155)">
<path d="M100.076 47.8219L55.5422 1.98038C52.979 -0.6598 48.8194 -0.6598 46.253 1.98038L37.0053 11.5001L48.7365 23.5763C51.4626 22.6281 54.5887 23.2642 56.7618 25.5012C58.9452 27.7525 59.5588 30.9981 58.6153 33.8134L69.921 45.452C72.6563 44.482 75.8123 45.1095 77.9969 47.3621C81.0502 50.5039 81.0502 55.596 77.9969 58.7399C74.9429 61.8841 69.9963 61.8841 66.9407 58.7399C64.6441 56.3733 64.0767 52.9013 65.2394 49.9888L54.6959 39.1352L54.6947 67.6973C55.459 68.0863 56.1571 68.6002 56.7618 69.2189C59.815 72.3607 59.815 77.4532 56.7618 80.5995C53.7078 83.7422 48.7588 83.7422 45.7092 80.5995C42.6559 77.4532 42.6559 72.3611 45.7092 69.2193C46.4408 68.4658 47.3104 67.869 48.2675 67.4635V38.6352C47.309 38.2324 46.439 37.6353 45.7092 36.8793C43.3958 34.5013 42.8396 31.0071 44.025 28.0831L32.4607 16.1775L1.92445 47.6099C-0.641484 50.2525 -0.641484 54.5349 1.92445 57.1755L46.4594 103.018C49.0234 105.658 53.1822 105.658 55.7494 103.018L100.076 57.3884C102.641 54.747 102.641 50.4621 100.076 47.8219" fill="#DE4C36"/>
</g>
<defs>
<clipPath id="clip0_33_155">
<rect width="102" height="105" fill="white"/>
</clipPath>
</defs>
</svg>
