<svg width="117" height="110" viewBox="0 0 117 110" fill="none" xmlns="http://www.w3.org/2000/svg">
<g clip-path="url(#clip0_33_136)">
<path d="M96.1942 35.6169C94.9492 35.1659 93.6936 34.7481 92.4286 34.3639C92.6411 33.4473 92.8367 32.5417 93.0104 31.6521C95.8611 17.0428 93.9975 5.27328 87.632 1.3982C81.5288 -2.31672 71.5477 1.55692 61.4673 10.8186C60.4738 11.7331 59.5024 12.6738 58.554 13.64C57.919 12.9975 57.2729 12.3675 56.6159 11.7503C46.0511 1.84736 35.4616 -2.32637 29.103 1.55982C23.0054 5.28631 21.1998 16.3505 23.7663 30.196C24.0216 31.5673 24.3099 32.9314 24.6309 34.2872C23.1319 34.7369 21.6856 35.2155 20.3013 35.7249C7.91498 40.2842 0.00488281 47.4289 0.00488281 54.8399C0.00488281 62.494 8.49673 70.1714 21.3977 74.8266C22.4436 75.2024 23.4982 75.5507 24.5605 75.8711C24.2155 77.3313 23.9092 78.8015 23.642 80.2798C21.1952 93.885 23.1059 104.688 29.1871 108.391C35.468 112.215 46.0099 108.284 56.2745 98.8114C57.1068 98.0413 57.9208 97.2493 58.7157 96.4363C59.7429 97.4825 60.7974 98.4983 61.8781 99.4825C71.8214 108.515 81.6413 112.162 87.7165 108.449C93.9915 104.614 96.0311 93.0094 93.3833 78.8903C93.1747 77.7842 92.9408 76.6835 92.6818 75.5893C93.4221 75.3578 94.1487 75.1194 94.8571 74.8714C108.269 70.1805 116.995 62.5963 116.995 54.8399C116.995 47.4018 108.83 40.2089 96.1942 35.6169ZM93.2855 69.8635C92.6457 70.0869 91.9894 70.3026 91.3204 70.5125C89.8397 65.5639 87.8418 60.3022 85.3964 54.8654C87.7298 49.5584 89.651 44.3638 91.0901 39.4476C92.2869 39.8133 93.4482 40.1988 94.5678 40.6055C105.394 44.5404 111.998 50.3574 111.998 54.8399C111.998 59.6143 104.866 65.8124 93.2855 69.8635ZM88.4806 79.915C89.6515 86.158 89.8183 91.8028 89.0427 96.2158C88.3463 100.181 86.9451 102.824 85.2122 103.883C81.5257 106.137 73.6411 103.208 65.1379 95.4829C64.1326 94.5679 63.1517 93.6235 62.1962 92.6509C65.493 88.8448 68.7874 84.4202 72.0028 79.5059C77.6586 78.9762 83.0017 78.1097 87.8472 76.9272C88.0807 77.9177 88.2918 78.914 88.4806 79.915ZM39.8894 103.494C36.2874 104.837 33.4184 104.875 31.6841 103.82C27.9939 101.573 26.4598 92.8989 28.5523 81.264C28.8011 79.8891 29.0859 78.5218 29.4065 77.1636C34.1985 78.2829 39.5028 79.0876 45.1718 79.573C48.4092 84.3816 51.7987 88.8014 55.2147 92.6717C54.4888 93.4133 53.7456 94.1359 52.986 94.8389C48.4466 99.0275 43.8982 101.999 39.8894 103.494ZM23.0145 69.8341C17.3099 67.7755 12.5987 65.1003 9.36959 62.1809C6.46768 59.5578 5.00302 56.953 5.00302 54.8399C5.00302 50.3424 11.3539 44.606 21.9465 40.7073C23.232 40.2345 24.5774 39.7882 25.9735 39.3694C27.4377 44.3966 29.358 49.653 31.6754 54.9682C29.3279 60.3621 27.3802 65.7024 25.9018 70.7889C24.9321 70.4957 23.9694 70.1773 23.0145 69.8341ZM28.6712 29.1824C26.4726 17.3202 27.9327 8.3721 31.6073 6.12627C35.521 3.73425 44.1756 7.14473 53.2976 15.6958C53.8925 16.2547 54.4777 16.8248 55.0529 17.4061C51.6538 21.2595 48.2954 25.6464 45.0868 30.4266C39.5846 30.965 34.3178 31.8296 29.4755 32.988C29.1771 31.7269 28.9089 30.4582 28.6712 29.1828V29.1824ZM79.1356 42.338C77.9918 40.2523 76.8057 38.1928 75.5779 36.1611C79.3106 36.6595 82.887 37.3209 86.2455 38.1295C85.2374 41.5414 83.9806 45.1082 82.5013 48.7653C81.4201 46.5994 80.2979 44.4565 79.1356 42.338ZM58.5562 21.177C60.8613 23.8136 63.1701 26.7571 65.4409 29.9509C60.8344 29.7212 56.2202 29.7203 51.6136 29.948C53.8867 26.7836 56.2151 23.844 58.5562 21.177ZM37.8449 42.3742C36.697 44.4757 35.5958 46.6052 34.5422 48.7609C33.0871 45.1169 31.8418 41.5337 30.825 38.0735C34.1629 37.2852 37.7224 36.6407 41.4313 36.1514C40.1899 38.1956 38.994 40.2703 37.8449 42.3737V42.3742ZM41.5378 73.9036C37.7059 73.4521 34.0929 72.8408 30.756 72.0737C31.7888 68.5518 33.0615 64.8923 34.5481 61.1702C35.606 63.3275 36.7117 65.4583 37.8645 67.5608C39.0499 69.7222 40.2774 71.8392 41.5378 73.9036ZM58.6943 88.8743C56.3252 86.1764 53.9626 83.1914 51.6552 79.9811C53.8954 80.0738 56.179 80.121 58.5 80.121C60.8846 80.121 63.2418 80.0646 65.562 79.9556C63.2838 83.2237 60.9838 86.213 58.6943 88.8743ZM82.5484 60.9801C84.1122 64.7432 85.4302 68.3834 86.4767 71.845C83.0849 72.6623 79.4226 73.3203 75.5637 73.8091C76.8002 71.7396 77.9976 69.6444 79.1552 67.5246C80.3321 65.3699 81.4635 63.1879 82.5484 60.9801ZM74.8261 64.8885C73.054 68.1385 71.1822 71.3268 69.2138 74.4483C65.6481 74.7149 62.0746 74.8474 58.5 74.8454C54.8592 74.8454 51.3179 74.7257 47.9078 74.4922C45.888 71.3779 43.9806 68.184 42.1895 64.9174H42.1899C40.4073 61.6681 38.7422 58.3485 37.1982 54.9658C38.7383 51.5823 40.3983 48.2611 42.1749 45.0093L42.1744 45.0098C43.9503 41.7572 45.8425 38.577 47.8471 35.476C51.3262 35.1981 54.8939 35.0534 58.4996 35.0534H58.5C62.1222 35.0534 65.6945 35.1996 69.1727 35.4794C71.157 38.5757 73.0371 41.745 74.8097 44.9814C76.5921 48.226 78.2742 51.5309 79.8531 54.891C78.2904 58.2854 76.6137 61.62 74.8261 64.8885ZM85.1359 5.96899C89.0532 8.35425 90.5769 17.973 88.1155 30.5868C87.9583 31.3915 87.7819 32.2112 87.59 33.0425C82.7358 31.8595 77.4653 30.98 71.9471 30.4334C68.7326 25.6006 65.4016 21.2069 62.0577 17.4032C62.9341 16.5114 63.8313 15.6427 64.7485 14.7979C73.3857 6.86298 81.458 3.72991 85.1359 5.96899ZM58.5 43.8109C64.2696 43.8109 68.9469 48.7489 68.9469 54.8399C68.9469 60.9309 64.2696 65.8688 58.5 65.8688C52.7305 65.8688 48.0532 60.9309 48.0532 54.8399C48.0532 48.7489 52.7305 43.8109 58.5 43.8109Z" fill="#00D8FF"/>
</g>
<defs>
<clipPath id="clip0_33_136">
<rect width="117" height="110" fill="white"/>
</clipPath>
</defs>
</svg>
