<svg width="86" height="87" viewBox="0 0 86 87" fill="none" xmlns="http://www.w3.org/2000/svg">
<g clip-path="url(#clip0_33_157)">
<path d="M0 75.7821C0 81.9781 4.96482 87 11.089 87H74.9107C81.0359 87 86 81.9774 86 75.7821V11.2182C86 5.02187 81.0352 0 74.911 0H11.0893C4.96415 0 0 5.02255 0 11.2179V75.7818V75.7821Z" fill="#563D7C"/>
<path d="M35.6624 38.4832V26.1629H46.3825C47.4038 26.1629 48.3881 26.2489 49.3361 26.4212C50.2841 26.5931 51.1229 26.9003 51.8522 27.3431C52.5812 27.786 53.1648 28.4007 53.6025 29.1875C54.0399 29.9746 54.2589 30.9829 54.2589 32.2121C54.2589 34.4255 53.6025 36.0241 52.2896 37.0076C50.9771 37.9915 49.2998 38.4832 47.2576 38.4832H35.6624ZM24.2126 17.1621V69.8379H49.4456C51.7793 69.8379 54.0523 69.5429 56.2644 68.9526C58.4766 68.3623 60.4455 67.4525 62.1716 66.223C63.8973 64.9934 65.2709 63.407 66.2918 61.4645C67.3131 59.5216 67.8234 57.2222 67.8234 54.5663C67.8234 51.2709 67.0333 48.4553 65.4533 46.1192C63.8731 43.7828 61.4785 42.1474 58.2697 41.2129C60.6034 40.0819 62.3661 38.6307 63.5573 36.8601C64.7482 35.0895 65.3438 32.8765 65.3438 30.2203C65.3438 27.7612 64.9427 25.6956 64.1405 24.0232C63.3383 22.3512 62.2079 21.0108 60.7492 20.0025C59.2909 18.9942 57.5407 18.2686 55.4985 17.8262C53.4567 17.3833 51.1958 17.1621 48.7163 17.1621H24.2126ZM35.6624 60.8371V46.3771H48.1327C50.6123 46.3771 52.6057 46.9548 54.1131 48.111C55.6201 49.2668 56.374 51.1971 56.374 53.9023C56.374 55.2797 56.1428 56.4107 55.6809 57.296C55.219 58.1813 54.5992 58.8823 53.8212 59.3986C53.0435 59.9151 52.1438 60.2839 51.1229 60.5054C50.1017 60.7263 49.0324 60.8371 47.914 60.8371H35.6624Z" fill="white"/>
</g>
<defs>
<clipPath id="clip0_33_157">
<rect width="86" height="87" fill="white"/>
</clipPath>
</defs>
</svg>
