<svg width="84" height="59" viewBox="0 0 84 59" fill="none" xmlns="http://www.w3.org/2000/svg">
<g id="logo 1" clip-path="url(#clip0_1_354)">
<path id="Vector" d="M10.875 0V3.83066C9.96122 3.83066 9.24827 3.98157 8.73615 4.28338C8.22403 4.57357 8.00312 5.15977 8.07341 6.04199L8.54034 11.1785C8.66084 12.4786 8.53532 13.5292 8.16378 14.3301C7.80228 15.131 7.24498 15.7464 6.49186 16.1758C5.74879 16.5938 4.87015 16.8897 3.85595 17.0638C4.9304 17.2495 5.83916 17.5514 6.58224 17.9693C7.32531 18.3871 7.86756 18.9907 8.20897 19.7801C8.55038 20.5695 8.66084 21.6258 8.54034 22.9492L8.07341 28.0857C8.00312 28.9679 8.22403 29.5541 8.73615 29.8443C9.24827 30.146 9.96122 30.297 10.875 30.297V34.1277C8.10353 34.1277 6.15547 33.6401 5.03081 32.6651C3.91621 31.7016 3.46433 30.0475 3.6752 27.7026L4.12708 22.7227C4.20741 21.8406 4.07687 21.1499 3.73546 20.6507C3.40408 20.1516 2.91205 19.8033 2.25935 19.6059C1.60664 19.3971 0.853531 19.2926 0 19.2926V14.8351C0.84349 14.8351 1.59159 14.7364 2.24429 14.5391C2.89699 14.3301 3.39405 13.9761 3.73546 13.477C4.07687 12.9778 4.20741 12.2871 4.12708 11.4049L3.6752 6.45987C3.45429 4.06861 3.90616 2.39706 5.03081 1.4452C6.15547 0.481734 8.10353 0 10.875 0Z" fill="#A7A7A7"/>
<path id="Vector_2" d="M23.9296 4.50977C26.4199 4.50977 28.2977 5.62414 29.5629 7.85288C30.8382 10.07 31.4759 13.1636 31.4759 17.1335C31.4759 21.115 30.8382 24.2318 29.5629 26.4838C28.2977 28.7242 26.4199 29.8443 23.9296 29.8443C21.4193 29.8443 19.5314 28.7242 18.2662 26.4838C17.011 24.2318 16.3834 21.115 16.3834 17.1335C16.3834 13.1636 17.011 10.07 18.2662 7.85288C19.5314 5.62414 21.4193 4.50977 23.9296 4.50977ZM23.9296 8.49713C22.8652 8.49713 22.087 9.15879 21.5949 10.4821C21.1029 11.7938 20.8569 14.0109 20.8569 17.1335C20.8569 18.1551 20.872 19.0663 20.9021 19.8672C20.9323 20.6566 20.9775 21.3589 21.0377 21.9741L26.1287 9.66374C25.8878 9.22264 25.5865 8.92083 25.225 8.75831C24.8736 8.5842 24.4418 8.49713 23.9296 8.49713ZM26.9722 17.1335C26.9722 15.7986 26.9471 14.6726 26.8969 13.7555L22.092 25.2302C22.313 25.4739 22.574 25.6422 22.8752 25.7351C23.1866 25.8279 23.538 25.8744 23.9296 25.8744C24.6426 25.8744 25.22 25.5958 25.6618 25.0387C26.1137 24.4815 26.445 23.5644 26.6559 22.2875C26.8668 20.999 26.9722 19.281 26.9722 17.1335Z" fill="#A7A7A7"/>
<path id="Vector_3" d="M42 4.50977C44.4904 4.50977 46.3681 5.62414 47.6334 7.85288C48.9087 10.07 49.5462 13.1636 49.5462 17.1335C49.5462 21.115 48.9087 24.2318 47.6334 26.4838C46.3681 28.7242 44.4904 29.8443 42 29.8443C39.4896 29.8443 37.6018 28.7242 36.3366 26.4838C35.0814 24.2318 34.4539 21.115 34.4539 17.1335C34.4539 13.1636 35.0814 10.07 36.3366 7.85288C37.6018 5.62414 39.4896 4.50977 42 4.50977ZM42 8.49713C40.9357 8.49713 40.1575 9.15879 39.6654 10.4821C39.1734 11.7938 38.9273 14.0109 38.9273 17.1335C38.9273 18.1551 38.9424 19.0663 38.9725 19.8672C39.0026 20.6566 39.0478 21.3589 39.1081 21.9741L44.1991 9.66374C43.9581 9.22264 43.6569 8.92083 43.2954 8.75831C42.9439 8.5842 42.5121 8.49713 42 8.49713ZM45.0426 17.1335C45.0426 15.7986 45.0175 14.6726 44.9674 13.7555L40.1625 25.2302C40.3833 25.4739 40.6444 25.6422 40.9457 25.7351C41.257 25.8279 41.6084 25.8744 42 25.8744C42.713 25.8744 43.2903 25.5958 43.7322 25.0387C44.184 24.4815 44.5155 23.5644 44.7263 22.2875C44.9372 20.999 45.0426 19.281 45.0426 17.1335Z" fill="#A7A7A7"/>
<path id="Vector_4" d="M58.9859 29.8095L54.4672 28.1902L62.2544 9.26321H53.0814V5.11914H67.0743V8.84532L58.9859 29.8095Z" fill="#A7A7A7"/>
<path id="Vector_5" d="M73.125 0C75.8965 0 77.8395 0.481734 78.9542 1.4452C80.0788 2.40867 80.5357 4.06862 80.3249 6.42505L79.873 11.4049C79.7926 12.2871 79.9232 12.9778 80.2646 13.477C80.606 13.9761 81.098 14.3301 81.7406 14.5391C82.3934 14.7364 83.1465 14.8351 84 14.8351V19.2926C83.1565 19.2926 82.4085 19.3971 81.7557 19.6059C81.1031 19.8033 80.606 20.1516 80.2646 20.6507C79.9232 21.1499 79.7926 21.8406 79.873 22.7227L80.3249 27.6678C80.5558 30.0475 80.1039 31.719 78.9692 32.6824C77.8445 33.646 75.8965 34.1277 73.125 34.1277V30.297C74.0489 30.297 74.7668 30.146 75.2789 29.8443C75.7911 29.5541 76.0069 28.9679 75.9267 28.0857L75.4597 22.9492C75.3392 21.6374 75.4597 20.5868 75.8212 19.7976C76.1927 18.9965 76.7551 18.3871 77.5082 17.9693C78.2612 17.5397 79.1449 17.238 80.1591 17.0638C79.0846 16.8781 78.171 16.5763 77.4178 16.1584C76.6747 15.7405 76.1325 15.1369 75.7911 14.3476C75.4497 13.5466 75.3392 12.4903 75.4597 11.1785L75.9267 6.04199C76.0069 5.15977 75.786 4.57357 75.2639 4.28338C74.7517 3.98157 74.0388 3.83066 73.125 3.83066V0Z" fill="#A7A7A7"/>
<path id="Vector_6" d="M10.6294 42.162C11.4669 42.162 12.1417 42.4023 12.6538 42.8829C13.1659 43.3634 13.5395 44.0425 13.7745 44.9201C14.0154 45.7976 14.136 46.8388 14.136 48.0438C14.136 49.1861 13.9914 50.2064 13.7022 51.1048C13.4129 51.9963 12.9942 52.6998 12.446 53.2151C11.8976 53.7237 11.2319 53.9778 10.4487 53.9778C9.51481 53.9778 8.75567 53.5913 8.17125 52.8181V57.906L5.31543 58.2508V42.5277H7.8459L7.97243 43.7708C8.36406 43.1928 8.79182 42.7819 9.25574 42.5381C9.71966 42.2874 10.1776 42.162 10.6294 42.162ZM9.74376 44.5962C9.41239 44.5962 9.12018 44.7112 8.86713 44.941C8.61409 45.1707 8.38212 45.4842 8.17125 45.8812V50.5616C8.37007 50.9028 8.57794 51.1536 8.79484 51.3137C9.01776 51.4739 9.27984 51.554 9.58109 51.554C10.0872 51.554 10.4818 51.2894 10.765 50.76C11.0482 50.2237 11.1897 49.3323 11.1897 48.0856C11.1897 47.1662 11.1325 46.4558 11.018 45.9543C10.9036 45.446 10.7379 45.0942 10.521 44.8992C10.3041 44.6971 10.045 44.5962 9.74376 44.5962Z" fill="#A7A7A7"/>
<path id="Vector_7" d="M24.2372 50.4258C24.2372 50.8436 24.2854 51.1466 24.3818 51.3346C24.4842 51.5227 24.6469 51.6655 24.8698 51.763L24.2824 53.9361C23.716 53.8734 23.2371 53.7305 22.8454 53.5077C22.4598 53.2778 22.1556 52.9331 21.9326 52.4735C21.5652 52.9818 21.0952 53.3614 20.5228 53.6122C19.9505 53.8559 19.3661 53.9778 18.7696 53.9778C17.7815 53.9778 16.9922 53.654 16.4017 53.0062C15.8173 52.3515 15.5251 51.5123 15.5251 50.4885C15.5251 49.2835 15.9319 48.3537 16.7452 47.699C17.5645 47.0444 18.7153 46.717 20.1975 46.717H21.4898V46.2991C21.4898 45.1639 20.8572 44.5962 19.5919 44.5962C19.2847 44.5962 18.89 44.6485 18.408 44.7529C17.9261 44.8504 17.4441 44.9931 16.9621 45.1812L16.3023 42.9874C16.9229 42.7157 17.5676 42.5102 18.2363 42.3709C18.9111 42.2317 19.5137 42.162 20.0438 42.162C21.4717 42.162 22.5261 42.4998 23.2069 43.1753C23.8938 43.844 24.2372 44.8121 24.2372 46.0797V50.4258ZM19.7546 51.6167C20.0619 51.6167 20.3843 51.5123 20.7217 51.3033C21.059 51.0875 21.3151 50.7845 21.4898 50.3945V48.5975H20.7849C19.9896 48.5975 19.4052 48.7402 19.0317 49.0258C18.6581 49.3044 18.4713 49.7153 18.4713 50.2586C18.4713 50.6834 18.5827 51.0178 18.8057 51.2615C19.0346 51.4984 19.351 51.6167 19.7546 51.6167Z" fill="#A7A7A7"/>
<path id="Vector_8" d="M36.0554 42.5277L32.8562 53.6227H29.4943L26.2588 42.5277H29.3406L31.2114 51.0944L33.1634 42.5277H36.0554Z" fill="#A7A7A7"/>
<path id="Vector_9" d="M45.9217 50.4258C45.9217 50.8436 45.9698 51.1466 46.0663 51.3346C46.1687 51.5227 46.3314 51.6655 46.5542 51.763L45.9669 53.9361C45.4004 53.8734 44.9215 53.7305 44.5299 53.5077C44.1443 53.2778 43.8401 52.9331 43.6171 52.4735C43.2496 52.9818 42.7796 53.3614 42.2073 53.6122C41.6349 53.8559 41.0505 53.9778 40.454 53.9778C39.4659 53.9778 38.6766 53.654 38.0862 53.0062C37.5018 52.3515 37.2096 51.5123 37.2096 50.4885C37.2096 49.2835 37.6163 48.3537 38.4296 47.699C39.249 47.0444 40.3998 46.717 41.8819 46.717H43.1742V46.2991C43.1742 45.1639 42.5417 44.5962 41.2765 44.5962C40.9692 44.5962 40.5745 44.6485 40.0925 44.7529C39.6105 44.8504 39.1285 44.9931 38.6465 45.1812L37.9869 42.9874C38.6074 42.7157 39.2521 42.5102 39.9208 42.3709C40.5956 42.2317 41.1981 42.162 41.7283 42.162C43.1562 42.162 44.2105 42.4998 44.8913 43.1753C45.5782 43.844 45.9217 44.8121 45.9217 46.0797V50.4258ZM41.439 51.6167C41.7463 51.6167 42.0687 51.5123 42.4061 51.3033C42.7435 51.0875 42.9995 50.7845 43.1742 50.3945V48.5975H42.4694C41.674 48.5975 41.0896 48.7402 40.7161 49.0258C40.3426 49.3044 40.1558 49.7153 40.1558 50.2586C40.1558 50.6834 40.2673 51.0178 40.4902 51.2615C40.7191 51.4984 41.0354 51.6167 41.439 51.6167Z" fill="#A7A7A7"/>
<path id="Vector_10" d="M48.6843 53.6226V42.5277H51.1787L51.3775 43.8126C51.8053 43.2555 52.2571 42.8411 52.7331 42.5695C53.2091 42.2978 53.7513 42.162 54.3599 42.162C55.1792 42.162 55.8239 42.451 56.2939 43.0292C56.7637 43.6072 56.9987 44.4221 56.9987 45.4737V53.6226H54.1429V46.4245C54.1429 45.7419 54.0767 45.2683 53.9441 45.0036C53.8176 44.732 53.5766 44.5962 53.2211 44.5962C52.9198 44.5962 52.6307 44.7076 52.3535 44.9306C52.0824 45.1534 51.8113 45.4633 51.5402 45.8603V53.6226H48.6843Z" fill="#A7A7A7"/>
<path id="Vector_11" d="M66.621 42.162C67.3018 42.162 67.8049 42.4197 68.1303 42.9351C68.4616 43.4435 68.6273 44.2689 68.6273 45.411V53.6226H66.1782V45.7872C66.1782 45.3972 66.145 45.1221 66.0788 44.9619C66.0185 44.8016 65.8919 44.7216 65.6992 44.7216C65.5486 44.7216 65.3919 44.7738 65.2292 44.8783C65.0726 44.9758 64.8979 45.1639 64.7051 45.4424V53.6226H62.6988V45.7872C62.6988 45.3972 62.6656 45.1221 62.5994 44.9619C62.5391 44.8016 62.4125 44.7216 62.2198 44.7216C62.0692 44.7216 61.9125 44.7738 61.7498 44.8783C61.5932 44.9758 61.4185 45.1639 61.2257 45.4424V53.6226H58.7404V42.5277H60.8371L61.0269 43.6037C61.3281 43.1301 61.6324 42.7714 61.9396 42.5277C62.2469 42.2839 62.6114 42.162 63.0332 42.162C63.3946 42.162 63.7019 42.2699 63.955 42.4859C64.2141 42.6948 64.3978 43.0256 64.5063 43.4783C64.7955 43.0883 65.1148 42.7714 65.4642 42.5277C65.8137 42.2839 66.1992 42.162 66.621 42.162Z" fill="#A7A7A7"/>
<path id="Vector_12" d="M78.8911 40.7517L79.5599 43.1754C79.2225 43.3287 78.8278 43.4401 78.376 43.5097C77.9241 43.5794 77.3969 43.6142 76.7945 43.6142C77.3969 43.9137 77.8548 44.2863 78.1681 44.7321C78.4874 45.1708 78.647 45.7489 78.647 46.4664C78.647 47.1837 78.4814 47.8245 78.1501 48.3886C77.8186 48.9458 77.3488 49.3846 76.7402 49.705C76.1317 50.0254 75.4117 50.1856 74.5803 50.1856C74.1826 50.1856 73.812 50.1438 73.4687 50.0602C73.3662 50.1229 73.288 50.2133 73.2337 50.3318C73.1795 50.4502 73.1524 50.5721 73.1524 50.6975C73.1524 50.8716 73.2126 51.0283 73.3331 51.1675C73.4597 51.3069 73.7519 51.3765 74.2097 51.3765H75.7822C76.5293 51.3765 77.174 51.5158 77.7162 51.7944C78.2645 52.0729 78.6893 52.4526 78.9905 52.9331C79.2917 53.4137 79.4424 53.964 79.4424 54.5839C79.4424 55.7191 79.0116 56.6141 78.1501 57.2688C77.2885 57.9234 76.0082 58.2509 74.3091 58.2509C73.0801 58.2509 72.1281 58.1046 71.4534 57.812C70.7845 57.5265 70.3176 57.1156 70.0526 56.5792C69.7934 56.0499 69.6639 55.4196 69.6639 54.6882H72.1944C72.1944 55.0087 72.2486 55.2699 72.357 55.4718C72.4716 55.6808 72.6854 55.8341 72.9987 55.9315C73.318 56.029 73.779 56.0778 74.3814 56.0778C74.99 56.0778 75.4539 56.022 75.7732 55.9107C76.0925 55.7992 76.3094 55.646 76.4239 55.4509C76.5444 55.2629 76.6047 55.0505 76.6047 54.8136C76.6047 54.4863 76.4931 54.2217 76.2703 54.0197C76.0473 53.8177 75.6949 53.7167 75.2128 53.7167H73.6855C72.6492 53.7167 71.8961 53.4973 71.4262 53.0585C70.9563 52.6128 70.7213 52.0938 70.7213 51.5019C70.7213 51.091 70.8146 50.701 71.0015 50.3318C71.1942 49.9627 71.4624 49.6527 71.8058 49.402C71.1912 49.0258 70.7514 48.5836 70.4863 48.0752C70.2212 47.5598 70.0887 46.9434 70.0887 46.226C70.0887 45.3902 70.2725 44.6729 70.6399 44.0739C71.0075 43.4679 71.5135 43.0013 72.1582 42.674C72.8089 42.3467 73.5501 42.1829 74.3814 42.1829C75.0984 42.1968 75.722 42.1412 76.2522 42.0158C76.7824 41.8834 77.2584 41.7059 77.6801 41.4829C78.1018 41.2531 78.5055 41.0093 78.8911 40.7517ZM74.4537 44.3246C74.0018 44.3246 73.6434 44.4918 73.3783 44.8262C73.1131 45.1535 72.9807 45.6062 72.9807 46.1843C72.9807 46.7971 73.1162 47.2673 73.3874 47.5946C73.6584 47.9219 74.014 48.0857 74.4537 48.0857C75.4297 48.0857 75.9178 47.4379 75.9178 46.1425C75.9178 44.9306 75.4297 44.3246 74.4537 44.3246Z" fill="#A7A7A7"/>
</g>
<defs>
<clipPath id="clip0_1_354">
<rect width="84" height="59" fill="white"/>
</clipPath>
</defs>
</svg>
