<svg width="123" height="130" viewBox="0 0 123 130" fill="none" xmlns="http://www.w3.org/2000/svg">
<path d="M7.6875 8.125H115.312V121.875H7.6875V8.125Z" fill="#F5DE19"/>
<path d="M79.9847 96.9921C80.9017 98.9608 82.3263 100.616 84.0945 101.766C85.8627 102.916 87.9024 103.514 89.9784 103.492C94.1681 103.492 96.8472 101.278 96.8472 98.2109C96.8472 94.5546 94.0951 93.2465 89.4826 91.1137L86.9534 89.9681C79.6502 86.6815 74.8071 82.5662 74.8071 73.8643C74.8071 65.849 80.5728 59.7431 89.6171 59.7431C92.5449 59.5196 95.4702 60.2122 98.028 61.7344C100.586 63.2566 102.663 65.541 104 68.3028L96.0938 73.6449C95.5788 72.2756 94.6822 71.104 93.5227 70.2856C92.3633 69.4672 90.9958 69.0406 89.6017 69.0624C88.9935 68.9981 88.3792 69.0684 87.7981 69.2688C87.217 69.4692 86.6818 69.7953 86.2265 70.2264C85.7712 70.6575 85.4059 71.1842 85.1538 71.7727C84.9018 72.3613 84.7685 72.9989 84.7624 73.6449C84.7624 76.8503 86.642 78.1503 90.9816 80.1449L93.5108 81.2906C102.105 85.1865 106.964 89.1556 106.964 98.0809C106.964 107.705 99.8107 112.978 90.2052 112.978C86.4625 113.23 82.7309 112.332 79.4604 110.392C76.19 108.452 73.5206 105.554 71.7744 102.046L79.9847 96.9921ZM44.257 97.9184C45.8445 100.896 47.2897 103.415 50.7645 103.415C54.0855 103.415 56.1842 102.042 56.1842 96.6996V60.3524H66.2971V96.8418C66.2971 107.908 60.1471 112.946 51.195 112.946C48.0306 113.128 44.888 112.295 42.1802 110.555C39.4724 108.815 37.3262 106.249 36.0237 103.196L44.257 97.9184Z" fill="black"/>
</svg>
