<svg width="123" height="130" viewBox="0 0 123 130" fill="none" xmlns="http://www.w3.org/2000/svg">
<path d="M22.6857 110.504L14.0488 8.125H108.951L100.303 110.488L61.4423 121.875L22.6857 110.504Z" fill="#E44F26"/>
<path d="M61.5 113.173L92.9034 103.972L100.291 16.4978H61.5V113.173Z" fill="#F1662A"/>
<path d="M61.5 54.4659H45.7791L44.6951 41.6081H61.5V29.0509H31.7109L31.9954 32.4228L34.9128 67.0231H61.5V54.4659ZM61.5 87.0756L61.4462 87.0918L48.216 83.3178L47.3704 73.3037H35.4432L37.1076 93.015L61.4462 100.157L61.5 100.141V87.0756Z" fill="#EBEBEB"/>
<path d="M61.4578 54.4659V67.0231H76.0871L74.711 83.3097L61.4578 87.0878V100.153L85.8156 93.015L85.9924 90.8944L88.783 57.8378L89.0751 54.4659H61.4578ZM61.4578 29.0509V41.6081H90.1552L90.3935 38.7887L90.9355 32.4228L91.2199 29.0509H61.4578Z" fill="white"/>
</svg>
