<svg width="118" height="119" viewBox="0 0 118 119" fill="none" xmlns="http://www.w3.org/2000/svg">
<path d="M21.7636 101.154L13.4814 7.4375H104.518L96.2253 101.139L58.9446 111.562L21.7636 101.154Z" fill="#1572B6"/>
<path d="M59 103.597L89.1269 95.1739L96.2142 15.1018H59V103.597Z" fill="#33A9DC"/>
<path d="M59 49.054H74.0819L75.1217 37.2842H59V25.7896H87.5781L87.3053 28.8724L84.5064 60.5487H59V49.054Z" fill="white"/>
<path d="M59.0701 78.9045L59.0184 78.9193L46.3261 75.4609L45.5148 66.2942H34.0725L35.6692 84.3413L59.0148 90.8788L59.0701 90.864V78.9045Z" fill="#EBEBEB"/>
<path d="M73.1121 60.0615L71.7404 75.4534L59.0295 78.9119V90.8714L82.3935 84.3412L82.5669 82.4001L84.547 60.0615H73.1121Z" fill="white"/>
<path d="M59.0406 25.7896V37.2842H31.5097L31.2811 34.6997L30.7612 28.8724L30.4883 25.7896H59.0406ZM59 49.054V60.5487H46.4662L46.2376 57.9642L45.7213 52.1369L45.4485 49.054H59Z" fill="#EBEBEB"/>
</svg>
