<svg width="128" height="131" viewBox="0 0 128 131" fill="none" xmlns="http://www.w3.org/2000/svg">
<path d="M36 56.0844C39.7333 40.801 49.0667 33.1594 64 33.1594C86.4 33.1594 89.2 50.3531 100.4 53.2187C107.867 55.1292 114.4 52.2635 120 44.6219C116.267 59.9052 106.933 67.5469 92 67.5469C69.6 67.5469 66.8 50.3531 55.6 47.4875C48.1333 45.5771 41.6 48.4427 36 56.0844ZM8 90.4719C11.7333 75.1885 21.0667 67.5469 36 67.5469C58.4 67.5469 61.2 84.7406 72.4 87.6062C79.8667 89.5167 86.4 86.651 92 79.0094C88.2667 94.2927 78.9333 101.934 64 101.934C41.6 101.934 38.8 84.7406 27.6 81.875C20.1333 79.9646 13.6 82.8302 8 90.4719Z" fill="#44A8B3"/>
</svg>
