<svg width="110" height="112" viewBox="0 0 110 112" fill="none" xmlns="http://www.w3.org/2000/svg">
<path d="M99.7218 17.605L79.9012 7.88899C78.7819 7.33948 77.5224 7.15814 76.2973 7.37011C75.0722 7.58208 73.9422 8.17686 73.064 9.07199L8.1812 69.3C7.39398 70.0273 6.92275 71.0432 6.87118 72.1243C6.81961 73.2053 7.19191 74.2629 7.9062 75.0645C7.99213 75.159 8.07807 75.25 8.17088 75.334L13.4681 80.234C14.1603 80.8754 15.0512 81.2497 15.9863 81.2919C16.9213 81.3341 17.8413 81.0416 18.5865 80.465L96.7381 20.125C97.3284 19.6689 98.032 19.3897 98.7697 19.3186C99.5074 19.2476 100.25 19.3877 100.914 19.7231C101.578 20.0585 102.136 20.5758 102.527 21.217C102.918 21.8581 103.125 22.5975 103.125 23.352V23.1175C103.125 21.9656 102.805 20.8372 102.203 19.862C101.601 18.8868 100.741 18.1045 99.7218 17.605Z" fill="#0065A9"/>
<path d="M99.7218 94.395L79.9012 104.115C78.7815 104.662 77.5224 104.843 76.2977 104.631C75.0729 104.419 73.943 103.825 73.064 102.932L8.1812 42.7C7.39398 41.9727 6.92275 40.9568 6.87118 39.8758C6.81961 38.7947 7.19191 37.7371 7.9062 36.9355C7.99213 36.841 8.07807 36.75 8.17088 36.666L13.4681 31.766C14.161 31.1219 15.054 30.7459 15.9913 30.7037C16.9286 30.6615 17.8508 30.9557 18.5968 31.535L96.7381 91.875C97.3284 92.3311 98.032 92.6104 98.7697 92.6814C99.5074 92.7524 100.25 92.6123 100.914 92.2769C101.578 91.9415 102.136 91.4242 102.527 90.783C102.918 90.1419 103.125 89.4025 103.125 88.648V88.9C103.121 90.0488 102.8 91.1733 102.198 92.1451C101.597 93.1168 100.738 93.8965 99.7218 94.395Z" fill="#007ACC"/>
<path d="M79.9012 104.114C78.7816 104.662 77.5224 104.843 76.2977 104.631C75.073 104.419 73.9431 103.825 73.064 102.931C73.5577 103.428 74.1841 103.764 74.8649 103.899C75.5457 104.034 76.2504 103.962 76.8909 103.691C77.5314 103.42 78.0791 102.963 78.4654 102.376C78.8517 101.79 79.0594 101.1 79.0625 100.394V11.606C79.0631 10.8965 78.8568 10.2028 78.4698 9.61274C78.0829 9.02271 77.5326 8.56288 76.8888 8.29152C76.245 8.02016 75.5365 7.94946 74.8532 8.0884C74.1698 8.22734 73.5424 8.56965 73.0503 9.07197C73.9287 8.17717 75.0584 7.58235 76.2833 7.3698C77.5081 7.15724 78.7676 7.33744 79.8875 7.88547L99.7047 17.5875C100.727 18.0845 101.591 18.8657 102.196 19.8411C102.801 20.8165 103.123 21.9463 103.125 23.1V88.9C103.125 90.0528 102.806 91.1822 102.203 92.1581C101.6 93.134 100.739 93.9167 99.7184 94.416L79.9012 104.114Z" fill="#1F9CF0"/>
</svg>
